<?xml version="1.0" encoding="UTF-8" standalone="no"?>
<!-- Created with Inkscape (http://www.inkscape.org/) -->

<svg
   version="1.1"
   id="svg906"
   width="32"
   height="32"
   viewBox="0 0 32 32"
   sodipodi:docname="astrum.svg"
   inkscape:version="1.1.2 (0a00cf5339, 2022-02-04)"
   inkscape:export-filename="astrum.png"
   inkscape:export-xdpi="384"
   inkscape:export-ydpi="384"
   xmlns:inkscape="http://www.inkscape.org/namespaces/inkscape"
   xmlns:sodipodi="http://sodipodi.sourceforge.net/DTD/sodipodi-0.dtd"
   xmlns="http://www.w3.org/2000/svg"
   xmlns:svg="http://www.w3.org/2000/svg">
  <defs
     id="defs910" />
  <sodipodi:namedview
     id="namedview908"
     pagecolor="#ffffff"
     bordercolor="#666666"
     borderopacity="1.0"
     inkscape:pageshadow="2"
     inkscape:pageopacity="0.0"
     inkscape:pagecheckerboard="0"
     showgrid="false"
     inkscape:zoom="25.544232"
     inkscape:cx="33.0603"
     inkscape:cy="15.071895"
     inkscape:window-width="3440"
     inkscape:window-height="1371"
     inkscape:window-x="0"
     inkscape:window-y="32"
     inkscape:window-maximized="1"
     inkscape:current-layer="g912" />
  <g
     inkscape:groupmode="layer"
     inkscape:label="Image"
     id="g912">
    <rect
       style="fill:#ffffff;fill-opacity:1;stroke:none;stroke-width:0.474278;stroke-opacity:1"
       id="rect54542"
       width="31.952215"
       height="31.963251"
       x="0.053273998"
       y="0.11522029"
       inkscape:export-filename="rect54542.png"
       inkscape:export-xdpi="384"
       inkscape:export-ydpi="384" />
    <rect
       style="fill:#000080;stroke-width:0.569603"
       id="rect2429"
       width="17.440304"
       height="17.652462"
       x="0.026563002"
       y="14.42601"
       ry="0" />
    <path
       style="fill:#d0d0d0;fill-opacity:1"
       d="m 18.732423,29.328472 c -0.594718,-1.016302 -0.307299,-10.245211 0.32085,-10.302362 0.275,-0.02502 2.169462,-0.422016 4.209916,-0.882213 l 3.709916,-0.836722 1.540084,2.350465 c 2.55705,3.902552 1.803854,9.680223 -0.92913,7.127234 -0.890711,-0.832049 -0.959253,-1.64871 -0.235624,-2.807424 1.772814,-2.838726 0.102356,-5.063705 -3.538287,-4.712849 -2.497906,0.240728 -3.331342,0.838202 -3.576426,2.563871 -0.350957,2.471131 0.755083,2.914468 2.619551,1.05 0.735584,-0.735584 1.2,-0.795567 1.2,-0.154988 0,0.574757 -0.9,1.859502 -2,2.854988 -2.852162,2.581171 -2.506422,3.326296 1.75,3.771532 l 3.75,0.392262 -4.190983,0.168103 c -2.305041,0.09246 -4.388481,-0.169397 -4.629867,-0.581897 z M 14.053273,9.6951038 c 0,-0.2108528 0.900621,-0.6188863 2.00138,-0.9067413 1.100759,-0.2878549 1.749201,-0.115339 1.440983,0.3833687 -0.538251,0.8709078 -3.442363,1.3124458 -3.442363,0.5233726 z m 5.950668,-2.0571905 c 0.657557,-0.7923075 1.820451,-1.2007651 2.584209,-0.9076836 0.763758,0.2930815 2.751851,-0.1471782 4.417984,-0.9783548 1.666133,-0.8311766 3.271918,-1.1187201 3.56841,-0.6389854 0.65442,1.0588736 -7.166751,3.3027223 -8.544344,2.4513229 -0.53731,-0.3320757 -0.976927,-0.1272163 -0.976927,0.455243 0,0.5824594 -0.5051,1.059017 -1.122445,1.059017 -0.79609,0 -0.774833,-0.4188466 0.07311,-1.4405591 z"
       id="path1024" />
    <path
       style="fill:#b9b9b9;fill-opacity:1"
       d="M 1.968557,29.920178 C 0.501821,27.179556 2.548166,26.912355 4.837692,29.545542 L 6.923469,31.944396 4.90636,31.792452 C 3.796949,31.708882 2.474938,30.86636 1.968557,29.920178 Z m 12.589611,1.166214 c -0.337227,-0.545644 -0.195035,-1.739193 0.315983,-2.65233 l 0.929122,-1.660249 v 2.652329 c 0,2.850767 -0.27922,3.223085 -1.245105,1.66025 z M 8.259437,27.432216 C 8.421047,26.526775 7.928135,25.568395 7.164078,25.302484 6.235257,24.97923 6.037913,25.244604 6.568586,26.103249 7.092903,26.95161 6.964907,27.141893 6.19147,26.663882 5.547519,26.265898 5.279548,25.52137 5.595979,25.009374 6.385026,23.732668 5.403875,23.84257 3.085183,25.290617 0.939789,26.630438 -0.557901,25.87639 0.582784,24.030723 c 1.07079,-1.732574 8.358907,-0.487108 9.959622,1.702 1.511042,2.066473 1.093511,3.345749 -1.091986,3.345749 -0.830794,0 -1.355392,-0.725135 -1.190983,-1.646256 z M 0.66636,17.895493 c 0.288811,-0.467304 0.944016,-0.590747 1.456012,-0.274316 1.308382,0.808625 1.161058,1.123962 -0.52511,1.123962 -0.800806,0 -1.219712,-0.382341 -0.930902,-0.849646 z"
       id="path1022" />
    <path
       style="fill:#8c8c8c;fill-opacity:1"
       d="m 16.211168,30.078472 c 0,-1.375 0.226973,-1.9375 0.504386,-1.25 0.277412,0.6875 0.277412,1.8125 0,2.5 -0.277413,0.6875 -0.504386,0.125 -0.504386,-1.25 z m 7.842105,0.272643 c 1.375,-0.250246 3.2875,-1.158709 4.25,-2.018806 1.889844,-1.688778 2.379107,-6.746994 0.75,-7.753837 -0.55,-0.339919 -1,0.281966 -1,1.381966 0,1.1 -0.498043,2.307808 -1.106763,2.684017 -0.77153,0.476832 -0.695806,0.944412 0.25,1.543704 0.976013,0.618432 0.681849,0.863985 -1.048225,0.875 l -2.404987,0.01531 1.780218,-1.967118 c 1.038902,-1.147974 1.558694,-2.814223 1.248246,-4.00138 -0.292584,-1.118844 -0.123938,-1.782083 0.37477,-1.473865 0.498707,0.308218 0.921053,-0.02866 0.938544,-0.74862 0.01962,-0.807354 0.59447,-0.565105 1.5,0.632113 3.498044,4.624827 0.228564,11.695565 -5.281803,11.422688 l -2.75,-0.136182 z m -2.44113,-7.74084 c 2.321687,-1.756035 3.44113,-1.909838 3.44113,-0.472786 0,0.582459 -0.418906,0.800119 -0.930902,0.483688 -0.511996,-0.316431 -1.213553,-0.117988 -1.559017,0.440983 -0.345463,0.558972 -1.137566,1.016312 -1.760228,1.016312 -0.622662,0 -0.258604,-0.660688 0.809017,-1.468197 z M 0.80327346,15.416191 c 0.68750004,-0.277412 1.81250004,-0.277412 2.50000004,0 0.6875,0.277413 0.125,0.504386 -1.25,0.504386 -1.37500004,0 -1.93750004,-0.226973 -1.25000004,-0.504386 z M 13.286826,10.708129 17.020379,9.5474935 15.286826,8.2925636 13.553273,7.0376337 15.896414,8.1430842 c 1.288727,0.6079978 3.538727,0.8172547 5,0.4650153 C 28.941463,6.6688423 31.059877,5.8981749 30.561606,5.0919557 30.257998,4.6007074 28.395781,4.87307 26.423347,5.6972058 24.450912,6.5213416 22.637769,6.9963021 22.394141,6.7526735 22.150512,6.509045 23.436651,5.7916037 25.252226,5.1583596 c 2.634635,-0.918919 2.998229,-1.3429268 1.801047,-2.1003073 -0.825,-0.5219249 -1.037628,-0.9558451 -0.472506,-0.9642671 1.394225,-0.020778 5.472506,2.899014 5.472506,3.9179693 0,0.4509308 -4.711302,2.0004141 -10.469559,3.4432961 C 10.86657,12.140511 6.6121859,12.783051 13.286826,10.708129 Z m 4.266447,-3.6296566 c -0.339919,-0.55 0.110081,-1 1,-1 0.889919,0 1.339919,0.45 1,1 -0.339919,0.55 -0.789919,1 -1,1 -0.210081,0 -0.660081,-0.45 -1,-1 z"
       id="path1020" />
    <path
       style="fill:#606060;fill-opacity:1"
       d="M 0.246539,29.031778 C 0.10812,27.2152 0.621546,26.110245 1.796413,25.696254 c 0.966273,-0.340488 2.222932,-0.849136 2.792575,-1.13033 0.569643,-0.281194 1.035714,0.369167 1.035714,1.445247 0,1.319693 -0.361128,1.656798 -1.109508,1.035698 -1.462335,-1.21363 -3.486175,0.804821 -2.744612,2.737304 l 0.561018,1.461991 0.845524,-1.333846 0.845524,-1.333846 0.01531,1.309017 c 0.0089,0.762645 0.537052,1.00877 1.265313,0.589675 0.692234,-0.398363 0.893959,-0.328947 0.452082,0.155567 -0.438854,0.4812 -1.811297,0.929042 -3.049874,0.995205 -1.767025,0.09439 -2.296528,-0.464658 -2.458943,-2.596158 z m 7.272893,-0.369973 c -1.374134,-3.266358 -1.250495,-4.186114 0.423636,-3.151443 0.562572,0.347688 0.769366,1.292749 0.459543,2.100135 -0.345755,0.901022 0.03453,1.467975 0.984657,1.467975 1.932368,0 3.045468,-1.647445 1.682317,-2.489919 -0.558972,-0.345463 -1.016312,-1.121302 -1.016312,-1.724086 0,-0.602783 0.977352,-0.238726 2.171894,0.809017 1.194542,1.047744 1.806904,1.284109 1.360805,0.525256 -0.545015,-0.927115 -0.381178,-1.236428 0.499432,-0.942891 0.720787,0.240262 1.381684,1.402771 1.468659,2.583352 0.08882,1.205576 -0.279956,1.875754 -0.841265,1.528846 -0.593483,-0.366793 -0.740046,0.05821 -0.360849,1.04638 0.755118,1.967805 -0.351559,2.171875 -2.24538,0.414045 -0.740688,-0.6875 -1.075483,-0.7625 -0.743989,-0.166667 0.331494,0.595834 -0.105748,1.083334 -0.971648,1.083334 -0.865899,0 -2.158074,-1.3875 -2.8715,-3.083334 z m 4.224504,-4.274834 C 11.449646,23.910799 8.699103,23.53409 5.631619,23.549838 l -5.577245,0.02863 -5.5e-4,-2.190983 c -6.47e-4,-2.575588 1.293366,-3.548941 5.118093,-3.849817 3.469684,-0.272945 9.889276,4.93288 8.184841,6.637315 -0.592762,0.592762 -1.318532,0.688155 -1.612822,0.211984 z m 1.309337,-0.621408 c 0,-0.1721 -1.300638,-1.558998 -2.890306,-3.081997 -2.097184,-2.00923 -3.100008,-2.429782 -3.654508,-1.532583 -0.461884,0.747344 -0.352303,0.981938 0.276999,0.593008 1.296026,-0.800988 3.523377,1.717241 2.50914,2.836816 -0.407729,0.450073 -0.209919,0.513829 0.439577,0.141678 0.649496,-0.37215 1.463553,-0.219296 1.809017,0.339675 0.592868,0.959281 1.510081,1.386523 1.510081,0.703403 z"
       id="path1018" />
    <rect
       style="fill:#ffffff;fill-opacity:1;stroke:none;stroke-width:0.0785458;stroke-opacity:1"
       id="rect53378"
       width="1.7098488"
       height="6.9798455"
       x="16.30728"
       y="19.43128" />
    <path
       style="fill:#333333;fill-opacity:1"
       d="M 5.11547,29.644677 C 2.630746,26.999809 2.515738,26.176546 4.675257,26.493496 c 0.892091,0.130931 2.129591,1.153927 2.75,2.273324 0.620409,1.119398 1.91373,1.912534 2.874045,1.762527 0.960316,-0.150008 1.933778,0.03104 2.163249,0.402333 1.138692,1.842444 -5.499544,0.67961 -7.347081,-1.287003 z m 11.3946,-0.750498 c -0.526239,-1.751362 -1.581935,-3.384741 -2.345993,-3.629732 -0.948168,-0.304026 -1.135078,-0.0074 -0.588749,0.934293 0.440245,0.758853 -0.383248,0.30182 -1.829984,-1.015628 -1.446737,-1.317448 -2.424254,-2.72896 -2.172261,-3.136693 0.670783,-1.08535 -2.05955,-3.081299 -3.022144,-2.209271 -0.450074,0.407728 -0.471807,0.141925 -0.0483,-0.590673 0.589867,-1.020367 1.43791,-0.692118 3.624768,1.403024 1.570111,1.504263 2.579732,3.228662 2.243601,3.831998 -0.336131,0.603336 -0.009,0.538362 0.72692,-0.144387 l 1.338066,-1.241362 -3.941362,-3.508845 C 8.326887,17.657039 5.090773,15.803071 3.303274,15.466975 l -3.25,-0.611085 V 7.4729795 0.09006836 l 15.786031,0.04422699 15.786033,0.044227 0.200891,2.42732455 0.200892,2.4273245 L 28.878745,3.1185296 25.730369,1.2038877 20.141821,4.1307142 C 13.475254,7.622119 7.879492,11.999396 10.053273,12.022465 c 0.825,0.0088 5.775,-1.091041 11,-2.4439926 5.225,-1.3529516 9.8375,-2.4689318 10.25,-2.479956 0.4125,-0.011024 0.75,5.6049556 0.75,12.4799556 v 12.5 H 24.76007 17.466866 Z m 12.543203,0.184293 c 4.328183,-4.328183 1.131592,-12 -5,-12 -3.849284,0 -7,3.150716 -7,7 0,1.666667 0.888889,3.888889 2,5 1.111111,1.111111 3.333333,2 5,2 1.666667,0 3.888889,-0.888889 5,-2 z m -8.410251,-1.25 c 0.389281,-0.6875 1.617613,-2.260726 2.729627,-3.496057 2.250058,-2.499579 1.607237,-4.267853 -0.819376,-2.253943 -2.023148,1.679064 -3.163656,0.504583 -1.480006,-1.524091 1.690174,-2.036535 5.359563,-1.50042 5.807443,0.848495 0.191328,1.003422 -0.436319,2.690922 -1.394772,3.75 l -1.74264,1.925596 h 2.154987 c 1.185244,0 2.154988,0.45 2.154988,1 0,0.55 -1.826558,1 -4.059017,1 -2.958031,0 -3.867035,-0.339056 -3.351234,-1.25 z M 15.865773,7.3953584 c 0.721875,-0.2888706 1.584375,-0.2533443 1.916667,0.078947 0.332291,0.3322917 -0.258334,0.5686404 -1.3125,0.5252193 -1.164943,-0.047984 -1.4019,-0.28494 -0.604167,-0.6041663 z"
       id="path1016" />
    <ellipse
       style="fill:#e3dbdb;stroke-width:0.570709"
       id="path1066"
       cx="3.2716215"
       cy="3.7292645"
       rx="0.45350876"
       ry="0.42863283" />
    <ellipse
       style="fill:#e3dbdb;stroke-width:0.570709"
       id="path1068"
       cx="1.715572"
       cy="10.934202"
       rx="0.42187086"
       ry="0.45845184" />
    <ellipse
       style="fill:#e3dbdb;stroke-width:0.570709"
       id="path1070"
       cx="5.5685954"
       cy="13.113864"
       rx="0.38231689"
       ry="0.38705504" />
    <ellipse
       style="fill:#e3dbdb;stroke-width:0.625224"
       id="path1072"
       cx="19.394272"
       cy="15.379515"
       rx="0.45713347"
       ry="0.45381132" />
    <ellipse
       style="fill:#e3dbdb;stroke-width:0.66939"
       id="path1074"
       cx="29.844669"
       cy="11.572577"
       rx="0.49660623"
       ry="0.5029397" />
    <ellipse
       style="fill:#e3dbdb;stroke-width:0.570709"
       id="path1076"
       cx="31.668056"
       cy="2.2475119"
       rx="0.35975626"
       ry="0.41068789" />
    <ellipse
       style="fill:#e3dbdb;stroke-width:0.570709"
       id="path1078"
       cx="22.113846"
       cy="0.15854953"
       rx="0.47688895"
       ry="0.41946205" />
    <ellipse
       style="fill:#e3dbdb;stroke-width:0.570709"
       id="path1080"
       cx="12.265816"
       cy="3.7076888"
       rx="0.39049578"
       ry="0.41486576" />
    <path
       style="fill:#0000ff;stroke-width:0.0157982"
       d=""
       id="path1295" />
    <path
       style="fill:#ffff00;stroke-width:0.0157982"
       d="M 12.118036,24.650638 C 11.99212,24.612728 11.867307,24.522466 11.756071,24.388887 11.698031,24.319197 11.592153,24.232942 11.520777,24.197216 11.05361,23.963388 9.954255,23.760536 8.512111,23.64206 7.362159,23.54759 6.664102,23.535284 3.325354,23.55063 l -3.276723,0.01507 0.01443,-1.360706 c 0.01551,-1.462637 0.03307,-1.680557 0.174795,-2.169633 0.414768,-1.431278 1.618497,-2.117806 4.23293,-2.414187 0.956259,-0.108405 1.2857,-0.103262 1.937519,0.03025 1.779192,0.364421 4.129585,1.730758 5.730304,3.331155 0.999242,0.99904 1.511868,1.883937 1.474567,2.545398 -0.01664,0.295116 -0.09079,0.449168 -0.328044,0.681538 -0.353515,0.346242 -0.853985,0.535404 -1.167095,0.441125 z m 0.85981,-0.619403 c 0.101112,-0.101047 0.111317,-0.269939 0.02426,-0.401492 C 12.715476,23.196614 10.835068,21.264192 9.649014,20.1839 8.541411,19.175064 7.7743,18.700395 7.249806,18.699332 c -0.211603,-4.29e-4 -0.325415,0.03285 -0.486271,0.142184 -0.204346,0.138895 -0.539385,0.716763 -0.54525,0.940435 -0.0055,0.210865 0.126963,0.208638 0.559126,-0.0094 0.269951,-0.136195 0.305873,-0.146932 0.522144,-0.156068 0.19081,-0.0081 0.272783,0.0029 0.459427,0.06147 0.644235,0.202146 1.25789,0.769266 1.580311,1.460471 0.147345,0.315877 0.187592,0.47466 0.186235,0.734717 -0.0016,0.308106 -0.05809,0.466952 -0.248588,0.699126 -0.152005,0.185258 -0.196971,0.259244 -0.197172,0.324417 -4.04e-4,0.131585 0.152804,0.101187 0.581133,-0.115301 0.159861,-0.0808 0.359169,-0.167041 0.442906,-0.191651 0.224146,-0.06587 0.588159,-0.05996 0.804969,0.01308 0.296854,0.100003 0.442623,0.223709 0.716738,0.608256 0.207517,0.291119 0.559587,0.644069 0.759084,0.760982 0.27493,0.16112 0.471611,0.18074 0.593249,0.05918 z"
       id="path1641" />
    <path
       style="fill:#0000ff;stroke-width:0.0157982"
       d="M 1.965398,31.609468 C 1.208429,31.516038 0.7939,31.215995 0.548437,30.583849 0.373217,30.132604 0.280098,29.521314 0.258144,28.678201 0.245404,28.189044 0.251444,28.007336 0.288624,27.754805 0.409426,26.935204 0.736974,26.342699 1.267995,25.983211 1.49215,25.831463 1.524622,25.8169 2.200069,25.565196 3.000765,25.266818 3.667417,24.99756 4.267724,24.730077 c 0.286542,-0.127676 0.526591,-0.217966 0.579495,-0.217966 0.506738,0 0.84048,0.846233 0.74598,1.891502 -0.04831,0.534347 -0.147101,0.794018 -0.340044,0.893793 -0.163058,0.08432 -0.357885,0.01568 -0.712638,-0.251089 -0.356398,-0.268001 -0.636063,-0.374444 -0.983426,-0.374299 -0.699911,2.91e-4 -1.375165,0.488603 -1.727531,1.249269 -0.146052,0.315286 -0.19791,0.534045 -0.215905,0.910781 -0.02172,0.454697 0.0238,0.642674 0.385094,1.590077 0.168373,0.441523 0.313986,0.811643 0.323585,0.82249 0.0096,0.01085 0.391001,-0.570011 0.847559,-1.290795 L 4,28.643322 4.0162,29.380485 c 0.01329,0.604532 0.02501,0.762064 0.06513,0.87557 0.103864,0.293823 0.289024,0.429066 0.587433,0.429066 0.207099,0 0.38093,-0.05894 0.77068,-0.261328 0.170362,-0.08846 0.357715,-0.165075 0.425302,-0.173915 0.117289,-0.01534 0.120216,-0.01387 0.100598,0.05055 -0.03654,0.119976 -0.242387,0.359323 -0.413342,0.480602 -0.479909,0.340457 -1.31975,0.630699 -2.214484,0.765305 -0.343506,0.05168 -1.1604,0.08926 -1.372122,0.06313 z"
       id="path1717" />
    <path
       style="fill:#0000ff;stroke-width:0.0157982"
       d="m 13.848798,31.972793 c -0.439703,-0.122896 -0.969958,-0.47785 -1.738071,-1.163472 -0.798829,-0.713037 -1.078622,-0.750144 -0.748819,-0.09931 0.112534,0.222075 0.121805,0.383252 0.03254,0.565704 -0.07748,0.158361 -0.185385,0.250824 -0.406364,0.348202 -0.168297,0.07416 -0.501448,0.123428 -0.687113,0.101607 C 9.553308,31.637654 8.482842,30.555612 7.779181,29.17647 7.524509,28.677324 7.006974,27.374485 6.827472,26.780642 6.540915,25.832637 6.526595,25.294708 6.784362,25.161409 c 0.169708,-0.08776 0.41398,-0.03025 0.868348,0.204451 0.377195,0.194835 0.558078,0.362767 0.692205,0.642642 0.223118,0.46557 0.240956,0.982494 0.05344,1.54859 -0.09705,0.292973 -0.105538,0.343706 -0.106574,0.636679 -0.0011,0.298434 0.0036,0.326433 0.07497,0.447789 0.09651,0.164182 0.242205,0.284523 0.436013,0.360148 0.235459,0.09188 0.828167,0.103092 1.217993,0.02305 1.020444,-0.209535 1.711644,-0.874565 1.654097,-1.59147 -0.02699,-0.336202 -0.212369,-0.593951 -0.644021,-0.895425 -0.51828,-0.361976 -0.911181,-1.014418 -0.947521,-1.573434 -0.01401,-0.215477 -0.01138,-0.229188 0.05701,-0.297578 0.231714,-0.231714 0.993784,0.116817 1.876192,0.858072 1.019153,0.856126 1.398332,1.118679 1.615599,1.118679 0.100781,0 0.112138,-0.01747 0.09894,-0.15225 -0.003,-0.03045 -0.07799,-0.192387 -0.166681,-0.359861 -0.175629,-0.331626 -0.277181,-0.600525 -0.277181,-0.733949 0,-0.05353 0.02525,-0.110425 0.06795,-0.153123 0.05611,-0.05611 0.0952,-0.06795 0.224378,-0.06795 0.388994,0 0.716323,0.14894 1.036396,0.471577 0.259772,0.261853 0.435987,0.532689 0.613694,0.943229 0.436471,1.008333 0.427732,2.369581 -0.01772,2.760696 -0.138933,0.121985 -0.253825,0.117074 -0.544004,-0.02325 -0.252592,-0.122151 -0.34754,-0.135402 -0.439078,-0.06128 -0.156382,0.126631 -0.121161,0.468151 0.124337,1.205615 0.102218,0.307056 0.189087,0.623944 0.206297,0.752542 0.08093,0.604709 -0.192361,0.892053 -0.710641,0.747195 z"
       id="path1756" />
    <path
       style="fill:#008000;stroke-width:0.0157982"
       d="M 9.093426,29.014838 C 8.669075,28.873578 8.386382,28.557229 8.287231,28.112659 8.250111,27.946215 8.245901,27.851166 8.265181,27.614389 8.323601,26.896811 8.282691,26.570984 8.082446,26.15917 7.856852,25.695225 7.533662,25.409455 7.061165,25.256133 6.712592,25.143024 6.427594,25.131128 6.332997,25.225743 c -0.136798,0.136819 -0.0634,0.395428 0.280623,0.988792 0.277543,0.478694 0.316462,0.656765 0.147108,0.673073 -0.155702,0.01499 -0.567901,-0.206382 -0.828341,-0.444869 -0.40051,-0.366748 -0.561044,-0.961305 -0.362347,-1.34199 0.266079,-0.50978 0.282188,-0.548336 0.293301,-0.701976 0.0096,-0.132331 0.0021,-0.166543 -0.04709,-0.215738 -0.22555,-0.22555 -1.07729,0.100711 -2.543881,0.974438 -0.937968,0.558798 -1.436615,0.756025 -1.987919,0.786273 -0.296303,0.01626 -0.498663,-0.01494 -0.676699,-0.104338 -0.133483,-0.06702 -0.315658,-0.270411 -0.36033,-0.402289 -0.05597,-0.165231 -0.04418,-0.467438 0.02749,-0.70448 0.08277,-0.273762 0.291584,-0.675245 0.4302,-0.827129 0.309071,-0.338656 0.898262,-0.55525 1.742845,-0.640692 0.421159,-0.04261 1.580931,-0.0194 2.091839,0.04186 2.27532,0.272815 4.434764,1.037213 5.529186,1.957216 0.358352,0.301241 0.738985,0.817886 1.027901,1.395201 0.4332,0.865627 0.437202,1.48921 0.0123,1.916266 -0.16854,0.169393 -0.43743,0.307704 -0.770075,0.396109 -0.28189,0.07492 -1.068623,0.102308 -1.245674,0.04337 z"
       id="path1869" />
    <path
       style="fill:#008000;stroke-width:0.0157982"
       d="M 1.155989,18.68352 C 0.869177,18.614 0.67728,18.478727 0.608921,18.297866 0.512451,18.04264 0.796102,17.647738 1.168983,17.518128 c 0.206241,-0.07169 0.540076,-0.06424 0.741052,0.01652 0.340976,0.137028 0.977276,0.624286 1.052547,0.806005 0.07505,0.181196 -0.119993,0.297576 -0.5958,0.355501 -0.344165,0.0419 -1.014657,0.0349 -1.210793,-0.01264 z"
       id="path1945" />
    <path
       style="fill:#ffff00;stroke-width:0.0157982"
       d="M 5.744265,31.845567 C 5.196344,31.802537 4.654476,31.746557 4.540113,31.721166 3.81328,31.55981 3.048522,31.134281 2.50519,30.588889 2.210179,30.292759 2.041124,30.047371 1.841436,29.625437 1.549967,29.009571 1.433282,28.466359 1.522115,28.138884 c 0.04291,-0.158186 0.222172,-0.342481 0.37417,-0.384678 0.427831,-0.118772 1.112981,0.162626 1.868421,0.767377 0.437024,0.349851 0.852521,0.788547 2.01635,2.128936 0.975111,1.123039 1.10229,1.279848 1.035533,1.276782 -0.04186,-0.0019 -0.524403,-0.0387 -1.072324,-0.08173 z"
       id="path1984" />
    <path
       style="fill:#008000;stroke-width:0.0157982"
       d="m 15.290989,31.959017 c -0.173903,-0.07026 -0.69815,-0.771669 -0.818495,-1.095093 -0.0542,-0.145652 -0.06141,-0.218428 -0.06161,-0.621709 -2.02e-4,-0.40606 0.0082,-0.490444 0.07565,-0.760379 0.119192,-0.47698 0.259509,-0.786075 0.783653,-1.726251 0.268813,-0.482181 0.494146,-0.882864 0.50074,-0.890408 0.0066,-0.0075 0.0066,0.914255 9.1e-5,2.048443 -0.01002,1.736986 -0.01909,2.107991 -0.0575,2.352816 -0.09423,0.600547 -0.204192,0.780792 -0.42252,0.692581 z"
       id="path2023" />
    <rect
       style="fill:#ffffff;fill-opacity:0;stroke-width:0.570709"
       id="rect52233"
       width="1.6839328"
       height="9.0401478"
       x="16.333195"
       y="19.43128" />
    <path
       style="fill:#808000;fill-opacity:0;stroke-width:0.011171"
       d="m 12.171562,24.653169 c -0.129407,-0.02673 -0.19451,-0.06971 -0.399458,-0.263702 -0.157406,-0.148992 -0.218153,-0.192692 -0.336141,-0.241811 -0.580803,-0.241788 -1.8316333,-0.444611 -3.3940246,-0.550343 -0.2603487,-0.01762 -1.1056724,-0.04733 -1.876163,-0.06593 -0.1918778,-0.0046 -0.3469269,-0.0238 -0.6304265,-0.07794 -0.4859091,-0.09278 -1.0096504,-0.162948 -1.4145132,-0.189501 -0.4202765,-0.02756 -1.5022663,-0.02745 -1.752395,1.76e-4 -0.3223818,0.03562 -0.6907706,0.1151 -0.9297598,0.200605 l -0.2250997,0.08054 -0.57742977,0.0065 -0.57742976,0.0065 0.004714,-0.7199 c 0.0066379,-1.013708 0.03906639,-2.034188 0.07232685,-2.276023 0.0963815,-0.700788 0.37623304,-1.288985 0.81409904,-1.711089 l 0.16925944,-0.163167 0.1059518,0.01784 c 0.058273,0.0098 0.3085415,0.0181 0.5561512,0.01842 0.8687687,0.0011 1.2571464,-0.117867 1.195337,-0.366216 -0.00826,-0.03319 -0.082153,-0.124742 -0.1787905,-0.22151 -0.09059,-0.09071 -0.1625913,-0.166961 -0.1600025,-0.16944 0.011203,-0.01073 0.5150093,-0.128228 0.738728,-0.172292 0.7041142,-0.138684 1.9088993,-0.264902 2.2705713,-0.237874 0.5526895,0.0413 1.0384495,0.146246 1.6524198,0.356983 1.95387,0.670642 4.2405779,2.255743 5.4865949,3.8032 0.703473,0.873659 0.968817,1.658052 0.732044,2.164023 -0.06628,0.141643 -0.26878,0.364814 -0.445336,0.490802 -0.290423,0.207241 -0.676247,0.327588 -0.901228,0.281113 z m 0.772607,-0.579337 c 0.118141,-0.07732 0.15755,-0.271868 0.084,-0.414672 -0.181786,-0.352944 -2.517224,-2.740186 -3.6522736,-3.733287 -1.3028335,-1.139901 -2.1216837,-1.471299 -2.6470682,-1.071299 -0.076824,0.05849 -0.2277661,0.259199 -0.3354902,0.446104 -0.1793777,0.311226 -0.2297646,0.576564 -0.1194826,0.629197 0.073518,0.03509 0.1837321,0.0032 0.4922039,-0.142217 0.1476498,-0.06962 0.3196199,-0.13617 0.3821555,-0.147881 0.6582224,-0.123264 1.5609712,0.434362 2.0544343,1.269019 0.2525568,0.427182 0.3494418,0.788665 0.302248,1.127703 -0.02795,0.200789 -0.081888,0.321277 -0.2321134,0.518494 -0.1623619,0.21315 -0.2001211,0.277117 -0.2002094,0.339168 -1.997e-4,0.139912 0.1211011,0.120408 0.5678184,-0.0913 0.4487813,-0.212685 0.4952783,-0.226837 0.7827073,-0.238247 0.280662,-0.01114 0.436234,0.01632 0.638067,0.11265 0.166687,0.07955 0.303929,0.210044 0.519863,0.494294 0.300465,0.395523 0.663864,0.747098 0.892046,0.86302 0.171944,0.08735 0.372116,0.104031 0.471096,0.03925 z"
       id="path52534" />
    <path
       style="fill:#ffff00;fill-opacity:0;stroke-width:0.011171"
       d="m 12.171562,24.653169 c -0.129407,-0.02673 -0.19451,-0.06971 -0.399458,-0.263702 -0.157406,-0.148992 -0.218153,-0.192692 -0.336141,-0.241811 -0.580803,-0.241788 -1.8316333,-0.444611 -3.3940246,-0.550343 -0.2603487,-0.01762 -1.1056724,-0.04733 -1.876163,-0.06593 -0.1918778,-0.0046 -0.3469269,-0.0238 -0.6304265,-0.07794 -0.4859091,-0.09278 -1.0096504,-0.162948 -1.4145132,-0.189501 -0.4202765,-0.02756 -1.5022663,-0.02745 -1.752395,1.76e-4 -0.3223818,0.03562 -0.6907706,0.1151 -0.9297598,0.200605 l -0.2250997,0.08054 -0.57742977,0.0065 -0.57742976,0.0065 0.004714,-0.7199 c 0.0066379,-1.013708 0.03906639,-2.034188 0.07232685,-2.276023 0.0963815,-0.700788 0.37623304,-1.288985 0.81409904,-1.711089 l 0.16925944,-0.163167 0.1059518,0.01784 c 0.058273,0.0098 0.3085415,0.0181 0.5561512,0.01842 0.8687687,0.0011 1.2571464,-0.117867 1.195337,-0.366216 -0.00826,-0.03319 -0.082153,-0.124742 -0.1787905,-0.22151 -0.09059,-0.09071 -0.1625913,-0.166961 -0.1600025,-0.16944 0.011203,-0.01073 0.5150093,-0.128228 0.738728,-0.172292 0.7041142,-0.138684 1.9088993,-0.264902 2.2705713,-0.237874 0.5526895,0.0413 1.0384495,0.146246 1.6524198,0.356983 1.95387,0.670642 4.2405779,2.255743 5.4865949,3.8032 0.703473,0.873659 0.968817,1.658052 0.732044,2.164023 -0.06628,0.141643 -0.26878,0.364814 -0.445336,0.490802 -0.290423,0.207241 -0.676247,0.327588 -0.901228,0.281113 z m 0.772607,-0.579337 c 0.118141,-0.07732 0.15755,-0.271868 0.084,-0.414672 -0.181786,-0.352944 -2.517224,-2.740186 -3.6522736,-3.733287 -1.3028335,-1.139901 -2.1216837,-1.471299 -2.6470682,-1.071299 -0.076824,0.05849 -0.2277661,0.259199 -0.3354902,0.446104 -0.1793777,0.311226 -0.2297646,0.576564 -0.1194826,0.629197 0.073518,0.03509 0.1837321,0.0032 0.4922039,-0.142217 0.1476498,-0.06962 0.3196199,-0.13617 0.3821555,-0.147881 0.6582224,-0.123264 1.5609712,0.434362 2.0544343,1.269019 0.2525568,0.427182 0.3494418,0.788665 0.302248,1.127703 -0.02795,0.200789 -0.081888,0.321277 -0.2321134,0.518494 -0.1623619,0.21315 -0.2001211,0.277117 -0.2002094,0.339168 -1.997e-4,0.139912 0.1211011,0.120408 0.5678184,-0.0913 0.4487813,-0.212685 0.4952783,-0.226837 0.7827073,-0.238247 0.280662,-0.01114 0.436234,0.01632 0.638067,0.11265 0.166687,0.07955 0.303929,0.210044 0.519863,0.494294 0.300465,0.395523 0.663864,0.747098 0.892046,0.86302 0.171944,0.08735 0.372116,0.104031 0.471096,0.03925 z"
       id="path52610" />
    <path
       style="fill:#ffff00;fill-opacity:0;stroke-width:0.011171"
       d="m 12.171562,24.653169 c -0.129407,-0.02673 -0.19451,-0.06971 -0.399458,-0.263702 -0.157406,-0.148992 -0.218153,-0.192692 -0.336141,-0.241811 -0.580803,-0.241788 -1.8316333,-0.444611 -3.3940246,-0.550343 -0.2603487,-0.01762 -1.1056724,-0.04733 -1.876163,-0.06593 -0.1918778,-0.0046 -0.3469269,-0.0238 -0.6304265,-0.07794 -0.4859091,-0.09278 -1.0096504,-0.162948 -1.4145132,-0.189501 -0.4202765,-0.02756 -1.5022663,-0.02745 -1.752395,1.76e-4 -0.3223818,0.03562 -0.6907706,0.1151 -0.9297598,0.200605 l -0.2250997,0.08054 -0.57742977,0.0065 -0.57742976,0.0065 0.004714,-0.7199 c 0.0066379,-1.013708 0.03906639,-2.034188 0.07232685,-2.276023 0.0963815,-0.700788 0.37623304,-1.288985 0.81409904,-1.711089 l 0.16925944,-0.163167 0.1059518,0.01784 c 0.058273,0.0098 0.3085415,0.0181 0.5561512,0.01842 0.8687687,0.0011 1.2571464,-0.117867 1.195337,-0.366216 -0.00826,-0.03319 -0.082153,-0.124742 -0.1787905,-0.22151 -0.09059,-0.09071 -0.1625913,-0.166961 -0.1600025,-0.16944 0.011203,-0.01073 0.5150093,-0.128228 0.738728,-0.172292 0.7041142,-0.138684 1.9088993,-0.264902 2.2705713,-0.237874 0.5526895,0.0413 1.0384495,0.146246 1.6524198,0.356983 1.95387,0.670642 4.2405779,2.255743 5.4865949,3.8032 0.703473,0.873659 0.968817,1.658052 0.732044,2.164023 -0.06628,0.141643 -0.26878,0.364814 -0.445336,0.490802 -0.290423,0.207241 -0.676247,0.327588 -0.901228,0.281113 z m 0.772607,-0.579337 c 0.118141,-0.07732 0.15755,-0.271868 0.084,-0.414672 -0.181786,-0.352944 -2.517224,-2.740186 -3.6522736,-3.733287 -1.3028335,-1.139901 -2.1216837,-1.471299 -2.6470682,-1.071299 -0.076824,0.05849 -0.2277661,0.259199 -0.3354902,0.446104 -0.1793777,0.311226 -0.2297646,0.576564 -0.1194826,0.629197 0.073518,0.03509 0.1837321,0.0032 0.4922039,-0.142217 0.1476498,-0.06962 0.3196199,-0.13617 0.3821555,-0.147881 0.6582224,-0.123264 1.5609712,0.434362 2.0544343,1.269019 0.2525568,0.427182 0.3494418,0.788665 0.302248,1.127703 -0.02795,0.200789 -0.081888,0.321277 -0.2321134,0.518494 -0.1623619,0.21315 -0.2001211,0.277117 -0.2002094,0.339168 -1.997e-4,0.139912 0.1211011,0.120408 0.5678184,-0.0913 0.4487813,-0.212685 0.4952783,-0.226837 0.7827073,-0.238247 0.280662,-0.01114 0.436234,0.01632 0.638067,0.11265 0.166687,0.07955 0.303929,0.210044 0.519863,0.494294 0.300465,0.395523 0.663864,0.747098 0.892046,0.86302 0.171944,0.08735 0.372116,0.104031 0.471096,0.03925 z"
       id="path52686" />
    <path
       style="fill:#ffff00;fill-opacity:0;stroke-width:0.011171"
       d="m 12.171562,24.653169 c -0.129407,-0.02673 -0.19451,-0.06971 -0.399458,-0.263702 -0.157406,-0.148992 -0.218153,-0.192692 -0.336141,-0.241811 -0.580803,-0.241788 -1.8316333,-0.444611 -3.3940246,-0.550343 -0.2603487,-0.01762 -1.1056724,-0.04733 -1.876163,-0.06593 -0.1918778,-0.0046 -0.3469269,-0.0238 -0.6304265,-0.07794 -0.4859091,-0.09278 -1.0096504,-0.162948 -1.4145132,-0.189501 -0.4202765,-0.02756 -1.5022663,-0.02745 -1.752395,1.76e-4 -0.3223818,0.03562 -0.6907706,0.1151 -0.9297598,0.200605 l -0.2250997,0.08054 -0.57742977,0.0065 -0.57742976,0.0065 0.004714,-0.7199 c 0.0066379,-1.013708 0.03906639,-2.034188 0.07232685,-2.276023 0.0963815,-0.700788 0.37623304,-1.288985 0.81409904,-1.711089 l 0.16925944,-0.163167 0.1059518,0.01784 c 0.058273,0.0098 0.3085415,0.0181 0.5561512,0.01842 0.8687687,0.0011 1.2571464,-0.117867 1.195337,-0.366216 -0.00826,-0.03319 -0.082153,-0.124742 -0.1787905,-0.22151 -0.09059,-0.09071 -0.1625913,-0.166961 -0.1600025,-0.16944 0.011203,-0.01073 0.5150093,-0.128228 0.738728,-0.172292 0.7041142,-0.138684 1.9088993,-0.264902 2.2705713,-0.237874 0.5526895,0.0413 1.0384495,0.146246 1.6524198,0.356983 1.95387,0.670642 4.2405779,2.255743 5.4865949,3.8032 0.703473,0.873659 0.968817,1.658052 0.732044,2.164023 -0.06628,0.141643 -0.26878,0.364814 -0.445336,0.490802 -0.290423,0.207241 -0.676247,0.327588 -0.901228,0.281113 z m 0.772607,-0.579337 c 0.118141,-0.07732 0.15755,-0.271868 0.084,-0.414672 -0.181786,-0.352944 -2.517224,-2.740186 -3.6522736,-3.733287 -1.3028335,-1.139901 -2.1216837,-1.471299 -2.6470682,-1.071299 -0.076824,0.05849 -0.2277661,0.259199 -0.3354902,0.446104 -0.1793777,0.311226 -0.2297646,0.576564 -0.1194826,0.629197 0.073518,0.03509 0.1837321,0.0032 0.4922039,-0.142217 0.1476498,-0.06962 0.3196199,-0.13617 0.3821555,-0.147881 0.6582224,-0.123264 1.5609712,0.434362 2.0544343,1.269019 0.2525568,0.427182 0.3494418,0.788665 0.302248,1.127703 -0.02795,0.200789 -0.081888,0.321277 -0.2321134,0.518494 -0.1623619,0.21315 -0.2001211,0.277117 -0.2002094,0.339168 -1.997e-4,0.139912 0.1211011,0.120408 0.5678184,-0.0913 0.4487813,-0.212685 0.4952783,-0.226837 0.7827073,-0.238247 0.280662,-0.01114 0.436234,0.01632 0.638067,0.11265 0.166687,0.07955 0.303929,0.210044 0.519863,0.494294 0.300465,0.395523 0.663864,0.747098 0.892046,0.86302 0.171944,0.08735 0.372116,0.104031 0.471096,0.03925 z"
       id="path52725" />
  </g>
</svg>
